<svg width="30" height="20" viewBox="0 0 30 20" fill="none" xmlns="http://www.w3.org/2000/svg">
    <path
        d="M3 10C2.16047 9.37035 1.54033 8.49252 1.22743 7.49084C0.914532 6.48916 0.92473 5.41442 1.25658 4.41886C1.58844 3.4233 2.22512 2.55739 3.07645 1.94379C3.92778 1.33019 4.95059 1 6 1C7.04941 1 8.07222 1.33019 8.92355 1.94379C9.77488 2.55739 10.4116 3.4233 10.7434 4.41886C11.0753 5.41442 11.0855 6.48916 10.7726 7.49084C10.4597 8.49252 9.83953 9.37035 9 10C8.16047 10.6296 7.54033 11.5075 7.22743 12.5092C6.91453 13.5108 6.92473 14.5856 7.25658 15.5811C7.58844 16.5767 8.22512 17.4426 9.07645 18.0562C9.92778 18.6698 10.9506 19 12 19C13.0494 19 14.0722 18.6698 14.9236 18.0562C15.7749 17.4426 16.4116 16.5767 16.7434 15.5811C17.0753 14.5856 17.0855 13.5108 16.7726 12.5092C16.4597 11.5075 15.8395 10.6296 15 10C14.1605 9.37035 13.5403 8.49252 13.2274 7.49084C12.9145 6.48916 12.9247 5.41442 13.2566 4.41886C13.5884 3.4233 14.2251 2.55739 15.0764 1.94379C15.9278 1.33019 16.9506 1 18 1C19.0494 1 20.0722 1.33019 20.9236 1.94379C21.7749 2.55739 22.4116 3.4233 22.7434 4.41886C23.0753 5.41442 23.0855 6.48916 22.7726 7.49084C22.4597 8.49252 21.8395 9.37035 21 10C20.1605 10.6296 19.5403 11.5075 19.2274 12.5092C18.9145 13.5108 18.9247 14.5856 19.2566 15.5811C19.5884 16.5767 20.2251 17.4426 21.0764 18.0562C21.9278 18.6698 22.9506 19 24 19C25.0494 19 26.0722 18.6698 26.9236 18.0562C27.7749 17.4426 28.4116 16.5767 28.7434 15.5811C29.0753 14.5856 29.0855 13.5108 28.7726 12.5092C28.4597 11.5075 27.8395 10.6296 27 10"
        stroke="black"
        stroke-linecap="round"
    />
</svg>