<svg width="60" height="60" viewBox="0 0 60 60" fill="none" xmlns="http://www.w3.org/2000/svg">
<mask id="path-1-inside-1_27_1019" fill="white">
<path fill-rule="evenodd" clip-rule="evenodd" d="M30 4C42.9467 4 53.8534 13.9086 55.7187 27.0345H47.7147C45.9416 18.7481 38.7755 12.4105 30 12.4105C21.2245 12.4105 14.0584 18.7481 12.2853 27.0345H4.28134C6.14658 13.9086 17.0533 4 30 4ZM30 0C45.2583 0 57.8561 11.7839 59.7531 27.0345C59.8325 27.6723 59.8931 28.3162 59.9344 28.9655H60C60 29.3117 59.9945 29.6566 59.9836 30C59.9945 30.3434 60 30.6883 60 31.0345H59.9344C59.8931 31.6838 59.8325 32.3277 59.7531 32.9655C57.8561 48.2161 45.2583 60 30 60C14.7417 60 2.14387 48.2161 0.24688 32.9655C0.167543 32.3277 0.106923 31.6838 0.0656084 31.0345H0C0 30.6883 0.0054791 30.3434 0.0163525 30C0.0054791 29.6566 0 29.3117 0 28.9655H0.0656084C0.106923 28.3162 0.167543 27.6723 0.24688 27.0345C2.14387 11.7839 14.7417 0 30 0ZM15.8985 30C16.4115 37.5938 22.5289 43.5895 30 43.5895C37.4711 43.5895 43.5885 37.5938 44.1015 30C43.5885 22.4061 37.4711 16.4105 30 16.4105C22.5289 16.4105 16.4115 22.4061 15.8985 30ZM30 56C42.9467 56 53.8534 46.0914 55.7187 32.9655H47.7147C45.9416 41.2519 38.7755 47.5895 30 47.5895C21.2245 47.5895 14.0584 41.2519 12.2853 32.9655H4.28134C6.14658 46.0914 17.0533 56 30 56Z"/>
</mask>
<path fill-rule="evenodd" clip-rule="evenodd" d="M30 4C42.9467 4 53.8534 13.9086 55.7187 27.0345H47.7147C45.9416 18.7481 38.7755 12.4105 30 12.4105C21.2245 12.4105 14.0584 18.7481 12.2853 27.0345H4.28134C6.14658 13.9086 17.0533 4 30 4ZM30 0C45.2583 0 57.8561 11.7839 59.7531 27.0345C59.8325 27.6723 59.8931 28.3162 59.9344 28.9655H60C60 29.3117 59.9945 29.6566 59.9836 30C59.9945 30.3434 60 30.6883 60 31.0345H59.9344C59.8931 31.6838 59.8325 32.3277 59.7531 32.9655C57.8561 48.2161 45.2583 60 30 60C14.7417 60 2.14387 48.2161 0.24688 32.9655C0.167543 32.3277 0.106923 31.6838 0.0656084 31.0345H0C0 30.6883 0.0054791 30.3434 0.0163525 30C0.0054791 29.6566 0 29.3117 0 28.9655H0.0656084C0.106923 28.3162 0.167543 27.6723 0.24688 27.0345C2.14387 11.7839 14.7417 0 30 0ZM15.8985 30C16.4115 37.5938 22.5289 43.5895 30 43.5895C37.4711 43.5895 43.5885 37.5938 44.1015 30C43.5885 22.4061 37.4711 16.4105 30 16.4105C22.5289 16.4105 16.4115 22.4061 15.8985 30ZM30 56C42.9467 56 53.8534 46.0914 55.7187 32.9655H47.7147C45.9416 41.2519 38.7755 47.5895 30 47.5895C21.2245 47.5895 14.0584 41.2519 12.2853 32.9655H4.28134C6.14658 46.0914 17.0533 56 30 56Z" fill="black"/>
<path d="M55.7187 27.0345V28.0345H56.8708L56.7087 26.8938L55.7187 27.0345ZM47.7147 27.0345L46.7368 27.2437L46.906 28.0345H47.7147V27.0345ZM12.2853 27.0345V28.0345H13.094L13.2632 27.2437L12.2853 27.0345ZM4.28134 27.0345L3.29129 26.8938L3.12919 28.0345H4.28134V27.0345ZM59.7531 27.0345L58.7608 27.1579L59.7531 27.0345ZM59.9344 28.9655L58.9364 29.029L58.996 29.9655H59.9344V28.9655ZM60 28.9655H61V27.9655H60V28.9655ZM59.9836 30L58.9841 29.9684L58.9831 30L58.9841 30.0316L59.9836 30ZM60 31.0345V32.0345H61V31.0345H60ZM59.9344 31.0345V30.0345H58.996L58.9364 30.971L59.9344 31.0345ZM59.7531 32.9655L58.7608 32.8421V32.8421L59.7531 32.9655ZM0.24688 32.9655L1.23923 32.8421L0.24688 32.9655ZM0.0656084 31.0345L1.06359 30.971L1.004 30.0345H0.0656084V31.0345ZM0 31.0345H-1V32.0345H0V31.0345ZM0.0163525 30L1.01585 30.0316L1.01685 30L1.01585 29.9684L0.0163525 30ZM0 28.9655V27.9655H-1V28.9655H0ZM0.0656084 28.9655V29.9655H1.004L1.06359 29.029L0.0656084 28.9655ZM0.24688 27.0345L-0.745472 26.911L-0.745472 26.911L0.24688 27.0345ZM15.8985 30L14.9007 29.9326L14.8962 30L14.9007 30.0674L15.8985 30ZM44.1015 30L45.0993 30.0674L45.1038 30L45.0993 29.9326L44.1015 30ZM55.7187 32.9655L56.7087 33.1062L56.8708 31.9655H55.7187V32.9655ZM47.7147 32.9655V31.9655H46.906L46.7368 32.7563L47.7147 32.9655ZM12.2853 32.9655L13.2632 32.7563L13.094 31.9655H12.2853V32.9655ZM4.28134 32.9655V31.9655H3.12919L3.29129 33.1062L4.28134 32.9655ZM56.7087 26.8938C54.7779 13.3062 43.4756 3 30 3V5C42.4178 5 52.929 14.511 54.7286 27.1752L56.7087 26.8938ZM47.7147 28.0345H55.7187V26.0345H47.7147V28.0345ZM30 13.4105C38.2698 13.4105 45.0551 19.3844 46.7368 27.2437L48.6925 26.8252C46.8281 18.1118 39.2812 11.4105 30 11.4105V13.4105ZM13.2632 27.2437C14.9449 19.3844 21.7302 13.4105 30 13.4105V11.4105C20.7188 11.4105 13.1719 18.1118 11.3075 26.8252L13.2632 27.2437ZM4.28134 28.0345H12.2853V26.0345H4.28134V28.0345ZM30 3C16.5245 3 5.22214 13.3062 3.29129 26.8938L5.27139 27.1752C7.07102 14.511 17.5822 5 30 5V3ZM60.7455 26.911C58.7903 11.1926 45.7953 -1 30 -1V1C44.7214 1 56.922 12.3753 58.7608 27.1579L60.7455 26.911ZM60.9324 28.902C60.8898 28.2326 60.8273 27.5688 60.7455 26.911L58.7608 27.1579C58.8376 27.7758 58.8964 28.3997 58.9364 29.029L60.9324 28.902ZM59.9344 29.9655H60V27.9655H59.9344V29.9655ZM59 28.9655C59 29.3011 58.9947 29.6355 58.9841 29.9684L60.9831 30.0316C60.9944 29.6777 61 29.3223 61 28.9655H59ZM61 31.0345C61 30.6777 60.9944 30.3223 60.9831 29.9684L58.9841 30.0316C58.9947 30.3645 59 30.6989 59 31.0345H61ZM59.9344 32.0345H60V30.0345H59.9344V32.0345ZM58.9364 30.971C58.8964 31.6003 58.8376 32.2242 58.7608 32.8421L60.7455 33.089C60.8273 32.4312 60.8898 31.7674 60.9324 31.098L58.9364 30.971ZM58.7608 32.8421C56.922 47.6247 44.7214 59 30 59V61C45.7953 61 58.7903 48.8074 60.7455 33.089L58.7608 32.8421ZM30 59C15.2786 59 3.07802 47.6247 1.23923 32.8421L-0.745472 33.089C1.20972 48.8074 14.2047 61 30 61V59ZM1.23923 32.8421C1.16237 32.2242 1.10363 31.6003 1.06359 30.971L-0.932374 31.098C-0.889783 31.7674 -0.827284 32.4312 -0.745472 33.089L1.23923 32.8421ZM0 32.0345H0.0656084V30.0345H0V32.0345ZM-0.983147 29.9684C-0.994354 30.3223 -1 30.6777 -1 31.0345H1C1 30.6989 1.00531 30.3645 1.01585 30.0316L-0.983147 29.9684ZM1.01585 29.9684C1.00531 29.6355 1 29.3011 1 28.9655H-1C-1 29.3223 -0.994354 29.6777 -0.983147 30.0316L1.01585 29.9684ZM0 29.9655H0.0656084V27.9655H0V29.9655ZM-0.745472 26.911C-0.827284 27.5688 -0.889783 28.2326 -0.932374 28.902L1.06359 29.029C1.10363 28.3997 1.16237 27.7758 1.23923 27.1579L-0.745472 26.911ZM30 -1C14.2047 -1 1.20972 11.1926 -0.745472 26.911L1.23923 27.1579C3.07802 12.3753 15.2786 1 30 1V-1ZM14.9007 30.0674C15.447 38.1535 21.9706 44.5895 30 44.5895V42.5895C23.0872 42.5895 17.376 37.0342 16.8962 29.9326L14.9007 30.0674ZM30 44.5895C38.0294 44.5895 44.553 38.1535 45.0993 30.0674L43.1038 29.9326C42.6241 37.0342 36.9128 42.5895 30 42.5895V44.5895ZM30 17.4105C36.9128 17.4105 42.6241 22.9657 43.1038 30.0674L45.0993 29.9326C44.553 21.8465 38.0294 15.4105 30 15.4105V17.4105ZM16.8962 30.0674C17.376 22.9657 23.0872 17.4105 30 17.4105V15.4105C21.9706 15.4105 15.447 21.8465 14.9007 29.9326L16.8962 30.0674ZM54.7286 32.8248C52.929 45.489 42.4178 55 30 55V57C43.4756 57 54.7779 46.6938 56.7087 33.1062L54.7286 32.8248ZM47.7147 33.9655H55.7187V31.9655H47.7147V33.9655ZM30 48.5895C39.2812 48.5895 46.8281 41.8882 48.6925 33.1748L46.7368 32.7563C45.0551 40.6156 38.2698 46.5895 30 46.5895V48.5895ZM11.3075 33.1748C13.1719 41.8882 20.7188 48.5895 30 48.5895V46.5895C21.7302 46.5895 14.9449 40.6156 13.2632 32.7563L11.3075 33.1748ZM4.28134 33.9655H12.2853V31.9655H4.28134V33.9655ZM30 55C17.5822 55 7.07102 45.489 5.27139 32.8248L3.29129 33.1062C5.22214 46.6938 16.5245 57 30 57V55Z" fill="black" mask="url(#path-1-inside-1_27_1019)"/>
</svg>
