<svg width="32" height="16" viewBox="0 0 32 16" fill="none" xmlns="http://www.w3.org/2000/svg">
    <path
        d="M1 2C2.66667 0.666667 4.33333 0.666667 6 2C7.66667 3.33333 9.33333 3.33333 11 2C12.6667 0.666667 14.3333 0.666667 16 2C17.6667 3.33333 19.3333 3.33333 21 2C22.6667 0.666667 24.3333 0.666667 26 2C27.6667 3.33333 29.3333 3.33333 31 2"
        stroke="black"
        stroke-linecap="round"
    />
    <path
        d="M1 8C2.66667 6.66667 4.33333 6.66667 6 8C7.66667 9.33333 9.33333 9.33333 11 8C12.6667 6.66667 14.3333 6.66667 16 8C17.6667 9.33333 19.3333 9.33333 21 8C22.6667 6.66667 24.3333 6.66667 26 8C27.6667 9.33333 29.3333 9.33333 31 8"
        stroke="black"
        stroke-linecap="round"
    />
    <path
        d="M1 14C2.66667 12.6667 4.33333 12.6667 6 14C7.66667 15.3333 9.33333 15.3333 11 14C12.6667 12.6667 14.3333 12.6667 16 14C17.6667 15.3333 19.3333 15.3333 21 14C22.6667 12.6667 24.3333 12.6667 26 14C27.6667 15.3333 29.3333 15.3333 31 14"
        stroke="black"
        stroke-linecap="round"
    />
</svg>
